<svg width="184" height="184" viewBox="0 0 184 184" fill="none" xmlns="http://www.w3.org/2000/svg">
<path d="M145.667 76.6666C143.633 76.6666 141.683 77.4743 140.245 78.9121C138.808 80.3499 138 82.2999 138 84.3333V110.247L126.653 98.8999C122.647 94.9251 117.232 92.6947 111.588 92.6947C105.945 92.6947 100.53 94.9251 96.5233 98.8999L91.1566 104.343L72.1433 85.2533C68.1369 81.2784 62.7219 79.048 57.0783 79.048C51.4347 79.048 46.0197 81.2784 42.0133 85.2533L30.6666 96.6766V53.6666C30.6666 51.6333 31.4744 49.6832 32.9122 48.2454C34.3499 46.8077 36.3 45.9999 38.3333 45.9999H99.6666C101.7 45.9999 103.65 45.1922 105.088 43.7544C106.526 42.3166 107.333 40.3666 107.333 38.3333C107.333 36.2999 106.526 34.3499 105.088 32.9121C103.65 31.4743 101.7 30.6666 99.6666 30.6666H38.3333C32.2333 30.6666 26.3832 33.0898 22.0699 37.4031C17.7565 41.7165 15.3333 47.5666 15.3333 53.6666V147.353C15.3535 153 17.6055 158.409 21.5982 162.402C25.5908 166.394 31.0002 168.646 36.6466 168.667H132.02C134.098 168.65 136.162 168.34 138.153 167.747C142.58 166.505 146.478 163.845 149.247 160.175C152.017 156.505 153.506 152.028 153.487 147.43V84.3333C153.487 83.3134 153.284 82.3038 152.889 81.3635C152.494 80.4232 151.915 79.5711 151.187 78.8572C150.459 78.1432 149.596 77.5817 148.648 77.2056C147.7 76.8294 146.686 76.6462 145.667 76.6666ZM38.3333 153.333C36.3 153.333 34.3499 152.526 32.9122 151.088C31.4744 149.65 30.6666 147.7 30.6666 145.667V118.297L52.8233 96.1399C53.9438 95.0257 55.4598 94.4002 57.04 94.4002C58.6202 94.4002 60.1362 95.0257 61.2566 96.1399L118.527 153.333H38.3333ZM138 145.667C137.951 147.151 137.471 148.589 136.62 149.807L101.967 115L107.41 109.633C107.96 109.072 108.616 108.627 109.34 108.322C110.064 108.018 110.841 107.861 111.627 107.861C112.412 107.861 113.19 108.018 113.914 108.322C114.638 108.627 115.294 109.072 115.843 109.633L138 131.943V145.667ZM161 30.6666H153.333V22.9999C153.333 20.9666 152.526 19.0165 151.088 17.5788C149.65 16.141 147.7 15.3333 145.667 15.3333C143.633 15.3333 141.683 16.141 140.245 17.5788C138.808 19.0165 138 20.9666 138 22.9999V30.6666H130.333C128.3 30.6666 126.35 31.4743 124.912 32.9121C123.474 34.3499 122.667 36.2999 122.667 38.3333C122.667 40.3666 123.474 42.3166 124.912 43.7544C126.35 45.1922 128.3 45.9999 130.333 45.9999H138V53.6666C138 55.6999 138.808 57.65 140.245 59.0877C141.683 60.5255 143.633 61.3333 145.667 61.3333C147.7 61.3333 149.65 60.5255 151.088 59.0877C152.526 57.65 153.333 55.6999 153.333 53.6666V45.9999H161C163.033 45.9999 164.983 45.1922 166.421 43.7544C167.859 42.3166 168.667 40.3666 168.667 38.3333C168.667 36.2999 167.859 34.3499 166.421 32.9121C164.983 31.4743 163.033 30.6666 161 30.6666Z" fill="black"/>
</svg>
