<?xml version="1.0" encoding="UTF-8"?>
<svg id="Layer_1" data-name="Layer 1" xmlns="http://www.w3.org/2000/svg" viewBox="0 0 1200 1200">
  <defs>
    <style>
      .cls-1 {
        fill: #414042;
        stroke-width: 0px;
      }
    </style>
  </defs>
  <rect class="cls-1" x="353.92" y="250.48" width="5.57" height="699.04"/>
  <rect class="cls-1" x="250.48" y="844.23" width="699.04" height="5.57"/>
  <g>
    <path class="cls-1" d="M282.44,342.46l17.72-31.29h7.02l17.95,31.29h-8.18l-3.76-6.87h-19.85l-3.64,6.87h-7.26ZM296.45,329.97h13.72l-6.76-12.73-6.96,12.73Z"/>
    <path class="cls-1" d="M291.11,430.81v-31.29h7.28v25.4h23.48v5.89h-30.76Z"/>
    <path class="cls-1" d="M285.41,519.16v-31.29h4.97l22.03,18.44c1.46,1.2,2.64,2.34,3.55,3.4-.2-2.92-.3-4.73-.3-5.42v-16.43h6.54v31.29h-4.97l-22.97-19.33c-1.09-.97-1.95-1.82-2.61-2.55.14,1.38.22,2.37.25,2.98s.04,1.27.04,2v16.91h-6.54Z"/>
    <path class="cls-1" d="M284.55,583.62c0-1.99.24-3.52.71-4.57.47-1.06,1.27-1.79,2.4-2.21,1.13-.41,2.67-.62,4.65-.62h23.03c1.97,0,3.52.21,4.65.62s1.92,1.15,2.4,2.21c.47,1.06.71,2.58.71,4.57v16.49c0,1.99-.24,3.52-.71,4.57s-1.27,1.79-2.4,2.21-2.67.62-4.65.62h-23.03c-1.97,0-3.52-.21-4.65-.62-1.13-.41-1.92-1.15-2.4-2.21-.47-1.06-.71-2.58-.71-4.57v-16.49ZM291.84,601.62h23.98v-19.78h-23.98v19.78Z"/>
    <path class="cls-1" d="M284.55,671.97c0-1.99.24-3.52.71-4.57.47-1.06,1.27-1.79,2.4-2.21,1.13-.41,2.67-.62,4.65-.62h23.03c1.97,0,3.52.21,4.65.62s1.92,1.15,2.4,2.21c.47,1.06.71,2.58.71,4.57v16.49c0,1.99-.24,3.52-.71,4.57s-1.27,1.79-2.4,2.21-2.67.62-4.65.62h-23.03c-1.97,0-3.52-.21-4.65-.62-1.13-.41-1.92-1.15-2.4-2.21-.47-1.06-.71-2.58-.71-4.57v-16.49ZM291.84,689.97h23.98v-19.78h-23.98v19.78Z"/>
    <path class="cls-1" d="M287.51,784.21v-31.29h26.79c1.64,0,2.98.2,4,.61,1.02.4,1.78,1.05,2.29,1.94.5.89.76,2.07.76,3.53v7.35c0,2.15-.57,3.71-1.71,4.66-1.14.95-2.92,1.42-5.34,1.42h-4.14l14.48,11.78h-10.48l-12.59-11.78h-6.89v11.78h-7.17ZM311.03,758.37h-16.35v8.67h16.35c1.18,0,2.02-.17,2.53-.5.5-.33.75-.99.75-1.98v-3.75c0-.96-.24-1.61-.72-1.95s-1.33-.5-2.56-.5Z"/>
  </g>
  <g>
    <path class="cls-1" d="M429.27,920.19v-32.99h7.68v26.78h24.75v6.21h-32.43Z"/>
    <path class="cls-1" d="M481.3,920.19l18.68-32.99h7.4l18.93,32.99h-8.62l-3.97-7.24h-20.93l-3.84,7.24h-7.65ZM496.07,907.02h14.46l-7.12-13.42-7.34,13.42Z"/>
    <path class="cls-1" d="M576.84,892.94h-21.6v7.12h20.57c2.08,0,3.72.22,4.91.65,1.2.44,2.05,1.21,2.56,2.32.51,1.11.76,2.72.76,4.82v4.53c0,2.1-.26,3.71-.76,4.82-.51,1.11-1.36,1.89-2.56,2.33-1.2.44-2.83.65-4.91.65h-20.38c-2.08,0-3.72-.22-4.92-.65-1.2-.44-2.05-1.21-2.56-2.33-.51-1.11-.76-2.72-.76-4.82v-.9l6.77-1.4v3.9h23.31v-7.52h-20.57c-2.1,0-3.74-.22-4.91-.67-1.18-.45-2.01-1.23-2.51-2.34-.5-1.11-.75-2.71-.75-4.79v-3.65c0-2.1.25-3.71.75-4.82.5-1.11,1.34-1.89,2.53-2.32,1.19-.44,2.82-.66,4.9-.66h18.73c2.04,0,3.64.21,4.79.62,1.15.41,2.01,1.14,2.56,2.18s.83,2.51.83,4.42v.68l-6.77,1.6v-3.76Z"/>
    <path class="cls-1" d="M604.93,920.19l18.68-32.99h7.4l18.93,32.99h-8.62l-3.97-7.24h-20.93l-3.84,7.24h-7.65ZM619.7,907.02h14.46l-7.12-13.42-7.34,13.42Z"/>
    <path class="cls-1" d="M672.19,920.19v-32.99h5.24l23.22,19.44c1.54,1.27,2.79,2.47,3.74,3.59-.21-3.08-.31-4.98-.31-5.71v-17.32h6.9v32.99h-5.24l-24.22-20.38c-1.15-1.02-2.06-1.91-2.75-2.68.15,1.46.24,2.5.27,3.14s.05,1.34.05,2.11v17.82h-6.9Z"/>
    <path class="cls-1" d="M736.25,920.19v-32.99h7.68v32.99h-7.68Z"/>
  </g>
  <path class="cls-1" d="M733.05,616.77c.78-62.29-29.26-112.26-61.42-162.09l-36.56-61.18c-26.62-44.06-38.95-84.05-43.63-121.87.1-6.16-1.09-11.47-4.87-10.72-4.21.83-5.94,4.73-6.34,8.53.42,16.51,6.68,36.35,12.43,59.78,9.03,36.77,31.72,77.54,48.26,106.21,23.65,40.99,37.61,80.18,45.09,105.3,10.06,35.69,17.65,70.26,18.77,101.88-3.96,46.75-24.73,92.63-58.5,137.83l-37.66,42.9c-4.61,4.43-5.8,7.11-4.33,8.41,1.54,1.7,3.85,1.22,6.95-1.46,7.42-5.86,16.33-13.77,25.78-22.42,32.58-29.29,59.8-61.97,77.51-100.66,12.84-29.71,19.43-59.82,18.52-90.43Z"/>
  <path class="cls-1" d="M678.21,557.36c-7.35-26.48-16.26-53.08-30.35-80.07-7.56-15.97-18.49-36.27-31.08-58.68-11.32-25.05-21.3-50.8-29.8-77.33-2.89-13.04-5.51-26.13-7.27-39.39-.26-3.72-2.26-5.99-5.71-5.94-4.32.81-5.38,5.59-4.75,12.43.6,12.17,1.9,23.27,4.39,32.54,7.13,30.57,16.31,59.17,27.79,85.55,8.14,21.47,15.91,41.65,23.03,59.59,14.49,33.58,22.42,56.22,26.69,72.76,8.55,29.93,14.44,66.71,10.6,121.38-2.19,15.76-6.03,25.16-12.43,24.74-4.47.92-7.61-11.51-9.87-32.84-2.4-45.39-5-98.02-6.58-113.55-1.23-10.14-5.31-19.88-12.52-29.16-6.77-8.12-15.28-13.85-27.45-14.5-9.72.44-16.99,5.03-22.59,12.45-4.86,7.82-7.94,17.07-9.34,27.65-3.14-2.22-7.36-3.14-12.43-3.05-9.77-.84-18.33,4.83-26.34,13.41-8.47,10.33-13.17,24.51-12.66,43.99.4,12.22,1.42,24.21,3.14,35.95,2.27,15.39,7.19,27.74,15.51,36.2,4.83,4.48,11.61,6.85,20.47,6.95,5.63-.16,10.82-.53,14.87-1.46.91,11.15-1.05,23.19-4.88,35.79-5.02,11.61-10.29,22.86-15.84,33.67-7.72,11.17-18.2,17.11-31.32,18.04-8.45.62-16.37-3.3-23.76-11.82-2.51-4.13-5.59-6.95-10.24-6.22-4.65.97-6.06,4.96-3.47,12.66,3.41,7.46,8.91,14.43,15.66,21.1,7.09,9.88,17.86,15.93,32.66,17.79,11.98-1.37,21.32-6.12,29.25-12.67,11.1-7.11,19.13-20.75,25.11-38.75,8.35-20.58,11.22-53.47,10.48-94.45.44-37.77-1.72-84.59-4.02-99.32,1.67-9.77,4.67-16.49,10.85-15.99,6.05-.63,8.92,13.68,10.12,35.85,2.5,45.02,7.4,106.66,15.17,131.68,2.17,16.99,10.11,22.78,20.6,23.64,6.74.45,13.48-3.51,20.23-10.42,8.73-7.96,14.97-19.89,19.74-34.18,5.84-17.49,8.87-38.52,8.96-63.25-.28-25.68-2.81-50.37-10.6-72.76ZM559.75,633.04c-.57,3.05-2.25,5.13-5.67,5.67-3.46.06-5.77-2.38-6.76-7.68-1.18-8.91-1.6-17.01-1.46-24.5.4-5.63,2.67-9.49,8.04-10.42,4.24.57,7.21,3.76,8.41,10.6-.59,10.43-1.03,21.73-2.56,26.32Z"/>
  <path class="cls-1" d="M555.73,322.58c1.06-3.81,2.66-5.54,4.63-5.85,1.53,1.02,2.6,2.7,3.05,5.24-.68,25.92,5.54,62.71,29.8,127.9,4.26,12.08,7.16,23.67,8.04,34.55.96,9.6-2.26,16.89-14.44,19.19-8.07-.63-14.31-4.27-18.46-11.33-10.7-21.25-18.13-50.26-18.77-95.3-.4-27.71,1.45-52.74,6.15-74.4Z"/>
  <path class="cls-1" d="M529.64,387.76c-1.12.03-2.25.4-3.43,1.55-12.17,13.37-25.49,42.24-34.64,68.32-17.19,37.75-25.26,80.24-25.14,126.96.55,40.22,5.64,80.03,21.02,118.91-.04,3.86-1.54,6.3-4.57,7.22-1.35.69-3.84-1.14-6.76-3.93-1.93-1.44-9.23-13.41-19.41-31.05-1.66-4.6-3.42-9.91-5.97-21.27-.4-2.41-2.21-3.6-5.15-3.81-3.75-.12-5.08,2.27-4.39,6.76,1.06,30.21,9.2,45.19,17.91,58.95,15.45,26.3,32.42,36.85,50.24,38.69,12.49-2.1,18.4-10.17,18.28-23.7-.1-10.08-2.19-18.67-5.55-26.32l-10.48-28.46c-9.24-29.16-13.64-63.69-14.62-102,4.5-61.07,15.98-120.94,36.53-179.26.75-5.04-.48-7.64-3.88-7.59Z"/>
</svg>