<svg width="42" height="49" viewBox="0 0 42 49" fill="none" xmlns="http://www.w3.org/2000/svg">
<path opacity="0.8" d="M15.6557 13.9358C15.9059 13.9358 16.1544 13.8763 16.3854 13.7591L27.7517 7.92809C28.3117 7.64109 28.6564 7.05309 28.6354 6.41784C28.6144 5.78259 28.2329 5.21909 27.6554 4.96884L16.4782 0.131839C15.9847 -0.0816614 15.4159 -0.0344114 14.9644 0.263089C14.5112 0.557089 14.2364 1.06109 14.2259 1.60534L14.1647 5.08084C5.46542 8.02084 -0.304331 16.2283 0.0124193 25.4701C0.264419 32.8096 4.46092 39.5558 10.9674 43.0733C11.2107 43.2046 11.4714 43.2658 11.7287 43.2658C12.3062 43.2658 12.8644 42.9526 13.1549 42.4031C13.5749 41.6068 13.2792 40.6181 12.4917 40.1928C6.99842 37.2213 3.45467 31.5373 3.24117 25.3563C2.98742 17.9643 7.37117 11.3563 14.1034 8.58434L14.0387 12.2716C14.0299 12.8438 14.3169 13.3811 14.7982 13.6856C15.0589 13.8536 15.3564 13.9358 15.6557 13.9358ZM23.2069 6.59809L17.3199 9.61859L17.4179 4.09209L23.2069 6.59809ZM41.9897 24.0543C41.7552 17.2398 38.1677 10.9608 32.3962 7.25609C31.6367 6.77134 30.6427 6.99709 30.1649 7.76009C29.6889 8.52134 29.9112 9.53109 30.6637 10.0141C35.5374 13.1413 38.5667 18.4316 38.7627 24.1663C38.9989 31.0228 35.2172 37.2668 29.1867 40.3468L29.0922 36.6613C29.0747 36.0891 28.7649 35.5676 28.2732 35.2841C27.7814 35.0023 27.1777 34.9988 26.6859 35.2806L15.5787 41.5841C15.0309 41.8956 14.7124 42.4976 14.7579 43.1311C14.8052 43.7628 15.2094 44.3106 15.7974 44.5363L27.1759 48.8973C27.3632 48.9673 27.5557 49.0023 27.7482 49.0023C28.0772 49.0023 28.4062 48.8991 28.6827 48.7013C29.1219 48.3863 29.3757 47.8701 29.3634 47.3276L29.2759 43.9011C37.2157 40.5358 42.2872 32.7063 41.9897 24.0543ZM20.1759 42.7198L25.9299 39.4543L26.0717 44.9791L20.1759 42.7198Z" fill="black"/>
</svg>
