<svg width="25" height="25" viewBox="0 0 25 25" fill="none" xmlns="http://www.w3.org/2000/svg">
<path d="M9.07293 8.03125L11.4583 5.63542V15.625C11.4583 15.9013 11.5681 16.1662 11.7634 16.3616C11.9588 16.5569 12.2237 16.6667 12.5 16.6667C12.7763 16.6667 13.0412 16.5569 13.2366 16.3616C13.4319 16.1662 13.5417 15.9013 13.5417 15.625V5.63542L15.9271 8.03125C16.0239 8.12889 16.1391 8.20638 16.2661 8.25927C16.393 8.31215 16.5292 8.33938 16.6667 8.33938C16.8042 8.33938 16.9403 8.31215 17.0673 8.25927C17.1942 8.20638 17.3094 8.12889 17.4063 8.03125C17.5039 7.93442 17.5814 7.81921 17.6343 7.69227C17.6872 7.56534 17.7144 7.42918 17.7144 7.29167C17.7144 7.15416 17.6872 7.01801 17.6343 6.89107C17.5814 6.76413 17.5039 6.64892 17.4063 6.55209L13.2396 2.38542C13.1405 2.29059 13.0237 2.21625 12.8958 2.16667C12.6422 2.06249 12.3578 2.06249 12.1042 2.16667C11.9763 2.21625 11.8595 2.29059 11.7604 2.38542L7.59376 6.55209C7.49664 6.64921 7.41959 6.76451 7.36703 6.89141C7.31447 7.01831 7.28741 7.15432 7.28741 7.29167C7.28741 7.42902 7.31447 7.56503 7.36703 7.69193C7.41959 7.81883 7.49664 7.93413 7.59376 8.03125C7.69088 8.12838 7.80619 8.20542 7.93308 8.25798C8.05998 8.31055 8.19599 8.3376 8.33334 8.3376C8.4707 8.3376 8.60671 8.31055 8.7336 8.25798C8.8605 8.20542 8.9758 8.12838 9.07293 8.03125ZM21.875 14.5833C21.5987 14.5833 21.3338 14.6931 21.1384 14.8884C20.9431 15.0838 20.8333 15.3487 20.8333 15.625V19.7917C20.8333 20.0679 20.7236 20.3329 20.5282 20.5282C20.3329 20.7236 20.0679 20.8333 19.7917 20.8333H5.20834C4.93208 20.8333 4.66712 20.7236 4.47177 20.5282C4.27642 20.3329 4.16668 20.0679 4.16668 19.7917V15.625C4.16668 15.3487 4.05693 15.0838 3.86158 14.8884C3.66623 14.6931 3.40128 14.5833 3.12501 14.5833C2.84874 14.5833 2.58379 14.6931 2.38844 14.8884C2.19309 15.0838 2.08334 15.3487 2.08334 15.625V19.7917C2.08334 20.6205 2.41258 21.4153 2.99863 22.0014C3.58469 22.5874 4.37954 22.9167 5.20834 22.9167H19.7917C20.6205 22.9167 21.4153 22.5874 22.0014 22.0014C22.5874 21.4153 22.9167 20.6205 22.9167 19.7917V15.625C22.9167 15.3487 22.8069 15.0838 22.6116 14.8884C22.4162 14.6931 22.1513 14.5833 21.875 14.5833Z" fill="black"/>
</svg>
